<svg xmlns="http://www.w3.org/2000/svg" xmlns:xlink="http://www.w3.org/1999/xlink" viewBox="0 0 22.5 22.5"><defs><style>.cls-1{fill:none;}.cls-2,.cls-3{fill:#fff;}.cls-2{stroke:#fff;}.cls-3,.cls-4{stroke:#231f20;}.cls-3{stroke-width:4px;}.cls-4{stroke-miterlimit:10;stroke-width:0.5px;fill:url(#boops);}</style><pattern id="boops" data-name="boops" width="72" height="72" patternTransform="matrix(-0.29, 0.25, -0.07, -0.02, -57.15, 99.19)" patternUnits="userSpaceOnUse" viewBox="0 0 72 72"><rect class="cls-1" width="72" height="72"/><rect class="cls-2" x="72.49" y="72.17" width="72" height="72"/><rect class="cls-2" x="0.49" y="72.17" width="72" height="72"/><rect class="cls-2" x="-71.51" y="72.17" width="72" height="72"/><rect class="cls-2" x="72.49" y="0.17" width="72" height="72"/><line class="cls-3" x1="43.49" y1="2.31" x2="152.49" y2="2.44"/><line class="cls-3" x1="43.49" y1="12.17" x2="143.49" y2="12.28"/><line class="cls-3" x1="48.49" y1="12.17" x2="148.49" y2="12.28"/><line class="cls-3" x1="48.49" y1="22.17" x2="148.49" y2="22.28"/><line class="cls-3" x1="45.49" y1="22.07" x2="145.49" y2="22.17"/><line class="cls-3" x1="45.49" y1="32.07" x2="145.49" y2="32.17"/><line class="cls-3" x1="47.49" y1="32.07" x2="147.49" y2="32.17"/><line class="cls-3" x1="47.49" y1="42.07" x2="147.49" y2="42.17"/><line class="cls-3" x1="48.49" y1="42.17" x2="148.49" y2="42.28"/><line class="cls-3" x1="48.49" y1="52.17" x2="148.49" y2="52.28"/><line class="cls-3" x1="49.49" y1="52.17" x2="149.49" y2="52.28"/><line class="cls-3" x1="49.49" y1="62.17" x2="149.49" y2="62.28"/><line class="cls-3" x1="49.49" y1="62.07" x2="149.49" y2="62.17"/><line class="cls-3" x1="49.49" y1="72.07" x2="149.49" y2="72.17"/><rect class="cls-2" x="0.49" y="0.17" width="72" height="72"/><line class="cls-3" x1="-28.51" y1="2.31" x2="80.49" y2="2.44"/><line class="cls-3" x1="-28.51" y1="12.17" x2="71.49" y2="12.28"/><line class="cls-3" x1="-23.51" y1="12.17" x2="76.49" y2="12.28"/><line class="cls-3" x1="-23.51" y1="22.17" x2="76.49" y2="22.28"/><line class="cls-3" x1="-26.51" y1="22.07" x2="73.49" y2="22.17"/><line class="cls-3" x1="-26.51" y1="32.07" x2="73.49" y2="32.17"/><line class="cls-3" x1="-24.51" y1="32.07" x2="75.49" y2="32.17"/><line class="cls-3" x1="-24.51" y1="42.07" x2="75.49" y2="42.17"/><line class="cls-3" x1="-23.51" y1="42.17" x2="76.49" y2="42.28"/><line class="cls-3" x1="-23.51" y1="52.17" x2="76.49" y2="52.28"/><line class="cls-3" x1="-22.51" y1="52.17" x2="77.49" y2="52.28"/><line class="cls-3" x1="-22.51" y1="62.17" x2="77.49" y2="62.28"/><line class="cls-3" x1="-22.51" y1="62.07" x2="77.49" y2="62.17"/><line class="cls-3" x1="-22.51" y1="72.07" x2="77.49" y2="72.17"/><rect class="cls-2" x="-71.51" y="0.17" width="72" height="72"/><line class="cls-3" x1="-100.51" y1="2.31" x2="8.49" y2="2.44"/><line class="cls-3" x1="-95.51" y1="12.17" x2="4.49" y2="12.28"/><line class="cls-3" x1="-95.51" y1="22.17" x2="4.49" y2="22.28"/><line class="cls-3" x1="-98.51" y1="22.07" x2="1.49" y2="22.17"/><line class="cls-3" x1="-98.51" y1="32.07" x2="1.49" y2="32.17"/><line class="cls-3" x1="-96.51" y1="32.07" x2="3.49" y2="32.17"/><line class="cls-3" x1="-96.51" y1="42.07" x2="3.49" y2="42.17"/><line class="cls-3" x1="-95.51" y1="42.17" x2="4.49" y2="42.28"/><line class="cls-3" x1="-95.51" y1="52.17" x2="4.49" y2="52.28"/><line class="cls-3" x1="-94.51" y1="52.17" x2="5.49" y2="52.28"/><line class="cls-3" x1="-94.51" y1="62.17" x2="5.49" y2="62.28"/><line class="cls-3" x1="-94.51" y1="62.07" x2="5.49" y2="62.17"/><line class="cls-3" x1="-94.51" y1="72.07" x2="5.49" y2="72.17"/><rect class="cls-2" x="72.49" y="-71.83" width="72" height="72"/><line class="cls-3" x1="49.49" y1="0.07" x2="149.49" y2="0.17"/><rect class="cls-2" x="0.49" y="-71.83" width="72" height="72"/><line class="cls-3" x1="-22.51" y1="0.07" x2="77.49" y2="0.17"/><rect class="cls-2" x="-71.51" y="-71.83" width="72" height="72"/><line class="cls-3" x1="-94.51" y1="0.07" x2="5.49" y2="0.17"/></pattern></defs><title>SM_Mauer</title><g id="Ebene_2" data-name="Ebene 2"><g id="Würfel"><path class="cls-4" d="M22.25,2.25v18a2,2,0,0,1-2,2h-6a2,2,0,0,1-2-2v-8a2,2,0,0,0-2-2h-8a2,2,0,0,1-2-2v-6a2,2,0,0,1,2-2h18A2,2,0,0,1,22.25,2.25Z"/></g></g></svg>