<svg xmlns="http://www.w3.org/2000/svg" viewBox="0 0 99.25 75.25"><defs><style>.cls-1,.cls-10,.cls-3{fill:#fff;}.cls-1{stroke:#ed1c24;}.cls-1,.cls-10,.cls-11,.cls-12{stroke-linecap:round;}.cls-1,.cls-10,.cls-11,.cls-12,.cls-13,.cls-3,.cls-4,.cls-5{stroke-miterlimit:10;}.cls-1,.cls-3,.cls-5{stroke-width:0.25px;}.cls-11,.cls-13,.cls-2,.cls-6,.cls-7,.cls-8,.cls-9{fill:#231f20;}.cls-2{opacity:0.26;}.cls-10,.cls-12,.cls-13,.cls-3,.cls-4,.cls-5{stroke:#231f20;}.cls-12,.cls-4,.cls-5{fill:none;}.cls-13,.cls-4{stroke-width:0.5px;}.cls-6{font-size:12px;}.cls-6,.cls-7,.cls-8,.cls-9{font-family:AmaticSC-Regular, Amatic SC;}.cls-7{font-size:11.27px;}.cls-8{font-size:11.27px;}.cls-9{font-size:7.46px;}.cls-10{stroke-width:3px;}.cls-11{stroke:#fff;stroke-width:2px;}</style></defs><title>Titelbildschirm2</title><g id="Ebene_2" data-name="Ebene 2"><g id="AltTitel"><rect class="cls-1" x="0.13" y="0.13" width="99" height="75"/><rect id="Fontmitwerkende" class="cls-2" x="2.13" y="2.12" width="96" height="72"/><rect class="cls-3" x="1.13" y="1.12" width="96" height="72"/><line class="cls-4" x1="1.13" y1="13.12" x2="85.13" y2="13.13"/><line class="cls-5" x1="85.13" y1="1.12" x2="85.13" y2="73.12"/><line class="cls-5" x1="1.13" y1="61.12" x2="96.83" y2="61.09"/><line class="cls-5" x1="13.13" y1="13.12" x2="13.13" y2="61.12"/><line class="cls-5" x1="1.13" y1="25.12" x2="97.13" y2="25.12"/><line class="cls-5" x1="1.13" y1="37.12" x2="97.13" y2="37.12"/><line class="cls-5" x1="1.13" y1="49.12" x2="97.13" y2="49.12"/><text id="TitelText" class="cls-6" transform="translate(2.87 11.12)">Augenschlepper</text><text id="Menu0" class="cls-7" transform="translate(14.13 23.49)">Neues Spiel</text><text id="Menu1" class="cls-7" transform="translate(14.13 35.49)">Spiel Fortfahren</text><text id="Menu2" class="cls-8" transform="translate(14.13 47.49)">Audio : ZU</text><text id="Menu3" class="cls-7" transform="translate(14.13 59.49)">Sprache : Deutsch</text><text class="cls-9" transform="translate(3.13 71.12)">Font von Vernon Adams</text><line class="cls-5" x1="85.13" y1="13.13" x2="97.13" y2="13.12"/><g id="Select0"><g id="Select3"><line class="cls-10" x1="6.12" y1="52.12" x2="8.12" y2="52.12"/><line class="cls-10" x1="5.12" y1="58.12" x2="7.12" y2="55.55"/><line class="cls-10" x1="9.12" y1="58.12" x2="7.12" y2="55.55"/><line class="cls-10" x1="7.12" y1="52.98" x2="4.12" y2="54.7"/><line class="cls-10" x1="10.12" y1="54.7" x2="7.12" y2="52.98"/><line class="cls-10" x1="7.12" y1="55.55" x2="7.12" y2="52.12"/><line class="cls-11" x1="6.12" y1="52.12" x2="8.12" y2="52.12"/><line class="cls-11" x1="5.12" y1="58.12" x2="7.12" y2="55.55"/><line class="cls-11" x1="9.12" y1="58.12" x2="7.12" y2="55.55"/><line class="cls-11" x1="7.12" y1="52.98" x2="4.12" y2="54.7"/><line class="cls-11" x1="10.12" y1="54.7" x2="7.12" y2="52.98"/><line class="cls-11" x1="7.12" y1="55.55" x2="7.12" y2="52.12"/><line class="cls-12" x1="6.13" y1="52.12" x2="8.13" y2="52.12"/><line class="cls-12" x1="5.12" y1="58.12" x2="7.13" y2="55.55"/><line class="cls-12" x1="9.12" y1="58.12" x2="7.13" y2="55.55"/><line class="cls-12" x1="7.13" y1="52.98" x2="4.13" y2="54.7"/><line class="cls-12" x1="10.13" y1="54.7" x2="7.13" y2="52.98"/><line class="cls-12" x1="7.13" y1="55.55" x2="7.13" y2="52.12"/></g><line class="cls-10" x1="6.12" y1="16.12" x2="8.12" y2="16.12"/><line class="cls-10" x1="5.12" y1="22.12" x2="7.12" y2="19.55"/><line class="cls-10" x1="9.12" y1="22.12" x2="7.12" y2="19.55"/><line class="cls-10" x1="7.12" y1="16.98" x2="4.12" y2="18.7"/><line class="cls-10" x1="10.12" y1="18.7" x2="7.12" y2="16.98"/><line class="cls-10" x1="7.12" y1="19.55" x2="7.12" y2="16.12"/><line class="cls-11" x1="6.12" y1="16.12" x2="8.12" y2="16.12"/><line class="cls-11" x1="5.12" y1="22.12" x2="7.12" y2="19.55"/><line class="cls-11" x1="9.12" y1="22.12" x2="7.12" y2="19.55"/><line class="cls-11" x1="7.12" y1="16.98" x2="4.12" y2="18.7"/><line class="cls-11" x1="10.12" y1="18.7" x2="7.12" y2="16.98"/><line class="cls-11" x1="7.12" y1="19.55" x2="7.12" y2="16.12"/><line class="cls-12" x1="6.13" y1="16.12" x2="8.13" y2="16.12"/><line class="cls-12" x1="5.12" y1="22.12" x2="7.13" y2="19.55"/><line class="cls-12" x1="9.12" y1="22.12" x2="7.13" y2="19.55"/><line class="cls-12" x1="7.13" y1="16.98" x2="4.13" y2="18.7"/><line class="cls-12" x1="10.13" y1="18.7" x2="7.13" y2="16.98"/><line class="cls-12" x1="7.13" y1="19.55" x2="7.13" y2="16.12"/></g><g id="Select1"><line class="cls-10" x1="6.12" y1="28.12" x2="8.12" y2="28.12"/><line class="cls-10" x1="5.12" y1="34.12" x2="7.12" y2="31.55"/><line class="cls-10" x1="9.12" y1="34.12" x2="7.12" y2="31.55"/><line class="cls-10" x1="7.12" y1="28.98" x2="4.12" y2="30.7"/><line class="cls-10" x1="10.12" y1="30.7" x2="7.12" y2="28.98"/><line class="cls-10" x1="7.12" y1="31.55" x2="7.12" y2="28.12"/><line class="cls-11" x1="6.12" y1="28.12" x2="8.12" y2="28.12"/><line class="cls-11" x1="5.12" y1="34.12" x2="7.12" y2="31.55"/><line class="cls-11" x1="9.12" y1="34.12" x2="7.12" y2="31.55"/><line class="cls-11" x1="7.12" y1="28.98" x2="4.12" y2="30.7"/><line class="cls-11" x1="10.12" y1="30.7" x2="7.12" y2="28.98"/><line class="cls-11" x1="7.12" y1="31.55" x2="7.12" y2="28.12"/><line class="cls-12" x1="6.13" y1="28.12" x2="8.13" y2="28.12"/><line class="cls-12" x1="5.12" y1="34.12" x2="7.13" y2="31.55"/><line class="cls-12" x1="9.12" y1="34.12" x2="7.13" y2="31.55"/><line class="cls-12" x1="7.13" y1="28.98" x2="4.13" y2="30.7"/><line class="cls-12" x1="10.13" y1="30.7" x2="7.13" y2="28.98"/><line class="cls-12" x1="7.13" y1="31.55" x2="7.13" y2="28.12"/></g><g id="Select2"><line class="cls-10" x1="6.13" y1="40.12" x2="8.13" y2="40.12"/><line class="cls-10" x1="5.13" y1="46.12" x2="7.13" y2="43.55"/><line class="cls-10" x1="9.13" y1="46.12" x2="7.13" y2="43.55"/><line class="cls-10" x1="7.13" y1="40.98" x2="4.13" y2="42.7"/><line class="cls-10" x1="10.13" y1="42.7" x2="7.13" y2="40.98"/><line class="cls-10" x1="7.13" y1="43.55" x2="7.13" y2="40.12"/><line class="cls-11" x1="6.13" y1="40.12" x2="8.13" y2="40.12"/><line class="cls-11" x1="5.13" y1="46.12" x2="7.13" y2="43.55"/><line class="cls-11" x1="9.13" y1="46.12" x2="7.13" y2="43.55"/><line class="cls-11" x1="7.13" y1="40.98" x2="4.13" y2="42.7"/><line class="cls-11" x1="10.13" y1="42.7" x2="7.13" y2="40.98"/><line class="cls-11" x1="7.13" y1="43.55" x2="7.13" y2="40.12"/><line class="cls-12" x1="6.13" y1="40.12" x2="8.13" y2="40.12"/><line class="cls-12" x1="5.13" y1="46.12" x2="7.13" y2="43.55"/><line class="cls-12" x1="9.13" y1="46.12" x2="7.13" y2="43.55"/><line class="cls-12" x1="7.13" y1="40.98" x2="4.13" y2="42.7"/><line class="cls-12" x1="10.13" y1="42.7" x2="7.13" y2="40.98"/><line class="cls-12" x1="7.13" y1="43.55" x2="7.13" y2="40.12"/></g><rect class="cls-3" x="86.13" y="2.29" width="10" height="10" rx="1.52" transform="translate(83.83 98.42) rotate(-90)"/><rect class="cls-3" x="86.13" y="14.12" width="10" height="10" rx="1.52" transform="translate(72 110.25) rotate(-90)"/><rect class="cls-3" x="86.29" y="26.12" width="10" height="10" rx="1.52" transform="translate(60.17 122.42) rotate(-90)"/><circle class="cls-13" cx="91.13" cy="7.29" r="0.83"/><circle class="cls-13" cx="87.79" cy="22.46" r="0.83"/><circle class="cls-13" cx="94.46" cy="15.79" r="0.83"/><circle class="cls-13" cx="87.96" cy="34.46" r="0.83"/><circle class="cls-13" cx="94.63" cy="27.79" r="0.83"/><circle class="cls-13" cx="91.29" cy="31.12" r="0.83"/><rect class="cls-3" x="86.13" y="38.12" width="10" height="10" rx="1.52" transform="translate(48 134.25) rotate(-90)"/><rect class="cls-3" x="86.13" y="50.12" width="10" height="10" rx="1.52" transform="translate(36 146.25) rotate(-90)"/><rect class="cls-3" x="86.13" y="62.12" width="10" height="10" rx="1.52" transform="translate(24 158.25) rotate(-90)"/><circle class="cls-13" cx="87.79" cy="46.46" r="0.83"/><circle class="cls-13" cx="87.79" cy="39.79" r="0.83"/><circle class="cls-13" cx="94.46" cy="39.79" r="0.83"/><circle class="cls-13" cx="94.46" cy="46.46" r="0.83"/><circle class="cls-13" cx="87.79" cy="58.46" r="0.83"/><circle class="cls-13" cx="91.13" cy="55.12" r="0.83"/><circle class="cls-13" cx="94.46" cy="58.46" r="0.83"/><circle class="cls-13" cx="87.79" cy="51.79" r="0.83"/><circle class="cls-13" cx="94.46" cy="51.79" r="0.83"/><circle class="cls-13" cx="87.79" cy="63.79" r="0.83"/><circle class="cls-13" cx="94.46" cy="63.79" r="0.83"/><circle class="cls-13" cx="87.79" cy="70.46" r="0.83"/><circle class="cls-13" cx="94.46" cy="70.46" r="0.83"/><circle class="cls-13" cx="87.79" cy="67.12" r="0.83"/><circle class="cls-13" cx="94.46" cy="67.12" r="0.83"/></g></g></svg>