<svg xmlns="http://www.w3.org/2000/svg" viewBox="0 0 92.5 52.5">
<defs>
    <style>

		@font-face {
	      font-family: embeddedfont;
	      src: url('AmaticSC-Regular.ttf');
	    }
svg{
    stroke-width:0.2px;
}
.cls-1,.cls-5{
    fill:#fff;
}
.cls-1,.cls-4,.cls-5,.cls-6{
    stroke:#231f20;
}
.cls-1{
    stroke-linejoin:round;
}
.cls-2{
    font-size:12px;
    font-family:embeddedfont, Amatic SC;
    font-weight:700;
}
.cls-2,.cls-3,.cls-6,.cls-7{
    fill:#231f20;
}
.cls-3{
    font-size:8.09px;
}
.cls-3,.cls-7{
    font-family:embeddedfont, Amatic SC;
}
.cls-4,.cls-8{
    fill:none;
}
.cls-4,.cls-5,.cls-6,.cls-8{
    stroke-miterlimit:10;
    stroke-width:0.4px;
}
.cls-7{
    font-size:3.93px;
}
.cls-8{
    stroke:none;
}
 
    </style>
</defs>
<title>TitelBildSchirm</title>
<g id="Ebene_2" data-name="Ebene 2">
    <g id="Ebene_5" data-name="Ebene 5">
        <g id="TitelBildSchirm">
            <rect class="cls-1" x="16.25" y="2.25" width="60" height="48" rx="1"/>
            <text id="TitelText" class="cls-2" transform="translate(19.51 13.25)">AUGENSCHLEPPER</text>
            <text id="MenuText" class="cls-3" transform="translate(33.37 23.25) scale(0.85 1)">&gt;NEUES SPIEL&lt;<tspan x="3.16" y="8.24">FORTSETZEN</tspan>
            <tspan x="-3.34" y="16.47">SPRACHE:DEUTSCH</tspan>
        </text>
        <line class="cls-4" x1="16.25" y1="14.25" x2="76.25" y2="14.25"/>
        <rect class="cls-5" x="2.25" y="38.25" width="12" height="12" rx="1.52" transform="translate(-36 52.5) rotate(-90)"/>
        <rect class="cls-5" x="2.25" y="20.25" width="12" height="12" rx="1.52" transform="translate(-18 34.5) rotate(-90)"/>
        <rect class="cls-5" x="2.25" y="2.25" width="12" height="12" rx="1.52" transform="translate(0 16.5) rotate(-90)"/>
        <rect class="cls-5" x="78.25" y="38.25" width="12" height="12" rx="1.52" transform="translate(40 128.5) rotate(-90)"/>
        <rect class="cls-5" x="78.25" y="20.25" width="12" height="12" rx="1.52" transform="translate(58 110.5) rotate(-90)"/>
        <rect class="cls-5" x="78.25" y="2.25" width="12" height="12" rx="1.52" transform="translate(76 92.5) rotate(-90)"/>
        <circle class="cls-6" cx="8.25" cy="44.25" r="1"/>
        <circle class="cls-6" cx="4.25" cy="30.25" r="1"/>
        <circle class="cls-6" cx="12.25" cy="22.25" r="1"/>
        <circle class="cls-6" cx="4.25" cy="12.25" r="1"/>
        <circle class="cls-6" cx="12.25" cy="4.25" r="1"/>
        <circle class="cls-6" cx="8.25" cy="8.25" r="1"/>
        <circle class="cls-6" cx="80.25" cy="48.25" r="1"/>
        <circle class="cls-6" cx="80.25" cy="40.25" r="1"/>
        <circle class="cls-6" cx="88.25" cy="40.25" r="1"/>
        <circle class="cls-6" cx="88.25" cy="48.25" r="1"/>
        <circle class="cls-6" cx="80.25" cy="30.25" r="1"/>
        <circle class="cls-6" cx="84.25" cy="26.25" r="1"/>
        <circle class="cls-6" cx="88.25" cy="30.25" r="1"/>
        <circle class="cls-6" cx="80.25" cy="22.25" r="1"/>
        <circle class="cls-6" cx="88.25" cy="22.25" r="1"/>
        <circle class="cls-6" cx="80.25" cy="4.25" r="1"/>
        <circle class="cls-6" cx="88.25" cy="4.25" r="1"/>
        <circle class="cls-6" cx="80.25" cy="12.25" r="1"/>
        <circle class="cls-6" cx="88.25" cy="12.25" r="1"/>
        <circle class="cls-6" cx="80.25" cy="8.25" r="1"/>
        <circle class="cls-6" cx="88.25" cy="8.25" r="1"/>
        <text id="MitwerkenderText" class="cls-7" transform="translate(18.51 48.25)">Font von Vernon Adams</text>
        <rect class="cls-8" x="0.25" y="0.25" width="92" height="52"/>
    </g>
</g>
</g>
</svg>